HIERARCHY
ROOT hip
{
	OFFSET 0.000000 0.000000 0.000000 
	CHANNELS 6 Xposition Yposition Zposition Xrotation Zrotation Yrotation
	JOINT abdomen
	{
		OFFSET 0.000000 3.402643 0.000000 
		CHANNELS 3 Xrotation Zrotation Yrotation
		JOINT chest
		{
			OFFSET 0.000000 8.438565 -0.680529 
			CHANNELS 3 Xrotation Zrotation Yrotation
			JOINT neck
			{
				OFFSET 0.000000 10.207942 -0.272212 
				CHANNELS 3 Xrotation Zrotation Yrotation
				JOINT head
				{
					OFFSET 0.000000 3.130431 0.000000 
					CHANNELS 3 Xrotation Zrotation Yrotation
					End Site
					{
						OFFSET 0.000000 3.130435 0.000000 
					}
				}
			}
			JOINT lCollar
			{
				OFFSET 3.470700 6.669187 -0.816635 
				CHANNELS 3 Yrotation Zrotation Xrotation
				JOINT lShldr
				{
					OFFSET 3.198488 0.000000 0.000000 
					CHANNELS 3 Zrotation Yrotation Xrotation
					JOINT lForeArm
					{
						OFFSET 10.139888 0.000000 0.000000 
						CHANNELS 3 Yrotation Zrotation Xrotation
						JOINT lHand
						{
							OFFSET 8.370511 0.000000 0.000000 
							CHANNELS 3 Zrotation Yrotation Xrotation
							End Site
							{
								OFFSET 4.083176 0.000000 0.000000 
							}
						}
					}
				}
			}
			JOINT rCollar
			{
				OFFSET -3.470700 6.669187 -0.816635 
				CHANNELS 3 Yrotation Zrotation Xrotation
				JOINT rShldr
				{
					OFFSET -3.198488 0.000000 0.000000 
					CHANNELS 3 Zrotation Yrotation Xrotation
					JOINT rForeArm
					{
						OFFSET -10.139888 0.000000 0.000000 
						CHANNELS 3 Yrotation Zrotation Xrotation
						JOINT rHand
						{
							OFFSET -8.370511 0.000000 0.000000 
							CHANNELS 3 Zrotation Yrotation Xrotation
							End Site
							{
								OFFSET -4.083176 0.000000 0.000000 
							}
						}
					}
				}
			}
		}
	}
	JOINT lThigh
	{
		OFFSET 5.308129 -1.633274 1.361059 
		CHANNELS 3 Xrotation Zrotation Yrotation
		JOINT lShin
		{
			OFFSET -2.041588 -20.007561 0.000000 
			CHANNELS 3 Xrotation Zrotation Yrotation
			JOINT lFoot
			{
				OFFSET 0.000000 -19.190928 -1.224953 
				CHANNELS 3 Xrotation Yrotation Zrotation
				End Site
				{
					OFFSET 0.000000 -2.449906 4.627600 
				}
			}
		}
	}
	JOINT rThigh
	{
		OFFSET -5.308129 -1.633274 1.361059 
		CHANNELS 3 Xrotation Zrotation Yrotation
		JOINT rShin
		{
			OFFSET 2.041588 -20.007561 0.000000 
			CHANNELS 3 Xrotation Zrotation Yrotation
			JOINT rFoot
			{
				OFFSET 0.000000 -19.190928 -1.224953 
				CHANNELS 3 Xrotation Yrotation Zrotation
				End Site
				{
					OFFSET 0.000000 -2.449906 4.627600 
				}
			}
		}
	}
}
MOTION
Frames: 8
Frame Time: 0.016667
-0.318505 30.161758 -8.953006 -16.739756 -17.514694 18.421116 29.031839 33.719898 -5.201771 3.097317 -3.043881 4.387922 -4.473054 -1.970909 0.159943 15.522092 -4.813137 1.342186 -15.105518 -23.709204 -1.294635 -55.876228 8.671542 -22.999966 -55.367027 -5.000000 3.145774 3.781937 -14.046236 -45.000000 20.565676 19.808992 -1.064248 47.708832 12.789515 10.780877 68.238525 5.000000 14.802689 7.864671 -9.832576 -26.912882 -77.177025 20.069319 -24.250519 130.947083 1.974943 -2.243248 -39.557938 10.709787 -6.765953 19.609501 24.974892 -37.171547 108.603638 -6.485135 15.726045 -56.435150 -22.530979 -24.035290 
-0.310782 30.163618 -8.951141 -16.729767 -17.532249 18.433321 29.000471 33.741898 -5.231697 3.097494 -3.063439 4.378182 -4.502324 -1.961253 0.158483 15.550565 -4.813118 1.351917 -15.105277 -23.699453 -1.294132 -55.864674 8.644610 -22.959402 -55.348251 -5.000000 3.117061 3.858852 -13.918737 -45.000000 20.565290 19.789492 -1.063241 47.740211 12.811119 10.762271 68.206116 5.000000 14.827427 7.958906 -9.852092 -26.911610 -77.138123 20.049725 -24.239666 130.956360 1.984722 -2.242712 -39.606350 10.724632 -6.748769 19.619326 24.971449 -37.198997 108.584038 -6.475421 15.730650 -56.436485 -22.484831 -24.012239 
-0.302116 30.165783 -8.949010 -16.726479 -17.550779 18.433321 28.976757 33.767784 -5.264304 3.106829 -3.073195 4.407477 -4.531568 -1.941942 0.155561 15.550798 -4.803355 1.351918 -15.124808 -23.699453 -1.294131 -55.839882 8.627979 -22.938492 -55.318401 -5.000000 3.110012 3.926322 -13.798542 -45.000000 20.539284 19.786066 -1.075152 47.736774 12.845879 10.757754 68.174034 5.000000 14.832927 8.035340 -9.858664 -26.907820 -77.140213 20.059507 -24.279379 130.975967 1.962770 -2.271887 -39.639576 10.694725 -6.733544 19.609560 24.982134 -37.228813 108.554871 -6.475435 15.723142 -56.429447 -22.553028 -24.047457 
-0.292216 30.168312 -8.946596 -16.710186 -17.560041 18.436264 28.956255 33.776253 -5.278506 3.124972 -3.092684 4.437284 -4.560761 -1.903319 0.149717 15.553712 -4.783887 1.322725 -15.163872 -23.699455 -1.294131 -55.804657 8.585517 -22.923307 -55.289047 -5.000000 3.107320 3.998709 -13.696753 -45.000000 20.490847 19.805573 -1.076164 47.722202 12.875677 10.781997 68.154617 5.000000 14.823627 8.092296 -9.853662 -26.890238 -77.110901 20.049665 -24.277348 130.985611 1.972535 -2.261972 -39.687130 10.717353 -6.735419 19.589901 24.975130 -37.276196 108.564682 -6.485279 15.718809 -56.352360 -22.614485 -24.032463 
-0.283402 30.170830 -8.943912 -16.713587 -17.579550 18.427002 28.925625 33.773388 -5.304838 3.133246 -3.102393 4.476318 -4.590273 -1.863235 0.153525 15.544987 -4.774143 1.312993 -15.193411 -23.709208 -1.294635 -55.780186 8.560783 -22.906471 -55.259094 -5.000000 3.110153 4.056539 -13.593542 -45.000000 20.452173 19.825081 -1.077177 47.716194 12.897123 10.803433 68.154938 5.000000 14.802224 8.158095 -9.844292 -26.874346 -77.088493 20.059603 -24.268898 130.965378 1.984703 -2.262651 -39.737839 10.708742 -6.725015 19.609364 24.988579 -37.311741 108.535156 -6.509649 15.709172 -56.332706 -22.637640 -24.050432 
-0.276590 30.173300 -8.940800 -16.726643 -17.561020 18.424057 28.946058 33.746620 -5.316961 3.143448 -3.092638 4.456786 -4.619545 -1.853580 0.152064 15.533134 -4.793631 1.332456 -15.178262 -23.716402 -1.307694 -55.764488 8.540314 -22.887074 -55.260124 -5.000000 3.113952 4.121318 -13.507862 -45.000000 20.448874 19.828493 -1.065257 47.706909 12.919259 10.809271 68.135643 5.000000 14.831025 8.230604 -9.829386 -26.896561 -77.055626 20.068594 -24.263552 130.995270 1.970086 -2.268229 -39.756824 10.719029 -6.726019 19.638588 24.976692 -37.286674 108.534370 -6.480068 15.748072 -56.271175 -22.707054 -24.065542 
-0.271420 30.175577 -8.937575 -16.733393 -17.534201 18.411846 28.956738 33.719860 -5.334526 3.144409 -3.082905 4.427504 -4.648816 -1.843924 0.150603 15.520446 -4.813098 1.361648 -15.158731 -23.716406 -1.307695 -55.748478 8.527907 -22.860743 -55.259972 -5.000000 3.128821 4.178843 -13.411633 -45.000000 20.448874 19.828493 -1.065257 47.714016 12.938418 10.803872 68.139427 5.000000 14.845118 8.307580 -9.823132 -26.920971 -76.991707 20.078035 -24.250664 130.986252 1.956883 -2.266989 -39.797306 10.711021 -6.753973 19.687582 24.975891 -37.259224 108.494888 -6.455385 15.772591 -56.270149 -22.751980 -24.090923 
-0.267754 30.177132 -8.935162 -16.739925 -17.524933 18.411846 28.945055 33.700871 -5.350171 3.163602 -3.102440 4.417753 -4.697594 -1.824612 0.147681 15.539157 -4.813079 1.371379 -15.148965 -23.716408 -1.307696 -55.735088 8.512825 -22.849173 -55.249630 -5.000000 3.130156 4.237950 -13.373289 -45.000000 20.432838 19.834837 -1.077683 47.713837 12.972487 10.812764 68.139427 5.000000 14.845118 8.362398 -9.816989 -26.941542 -76.961548 20.069284 -24.237844 130.987503 1.962805 -2.225833 -39.767719 10.704747 -6.798518 19.687622 24.974287 -37.239521 108.504539 -6.416395 15.795382 -56.185444 -22.839279 -24.088266 
